<svg width="66" height="15" viewBox="0 0 66 15" fill="none" xmlns="http://www.w3.org/2000/svg">
<path d="M5.58065 14.271C4.84516 14.271 4.2129 14.1935 3.68387 14.0387C3.16774 13.8839 2.74194 13.729 2.40645 13.5742C2.07097 13.4194 1.80645 13.3419 1.6129 13.3419C1.44516 13.3419 1.30968 13.4129 1.20645 13.5548C1.11613 13.6968 1.04516 13.9032 0.993548 14.1742H0.219355C0.245161 13.8903 0.264516 13.5419 0.277419 13.129C0.290323 12.7161 0.296774 12.1871 0.296774 11.5419C0.309677 10.8968 0.316129 10.0903 0.316129 9.12258H1.09032C1.19355 10.4774 1.61935 11.5484 2.36774 12.3355C3.11613 13.1097 4.09032 13.4968 5.29032 13.4968C6.15484 13.4968 6.84516 13.2774 7.36129 12.8387C7.89032 12.3871 8.15484 11.7806 8.15484 11.0194C8.15484 10.5419 8.03871 10.1226 7.80645 9.76129C7.5871 9.3871 7.22581 9.04516 6.72258 8.73548C6.23226 8.42581 5.57419 8.12258 4.74839 7.82581C3.75484 7.46452 2.94194 7.07742 2.30968 6.66452C1.69032 6.25161 1.23226 5.79355 0.935484 5.29032C0.651613 4.77419 0.509677 4.19355 0.509677 3.54839C0.509677 2.82581 0.670968 2.2 0.993548 1.67097C1.32903 1.14194 1.8 0.735484 2.40645 0.451613C3.0129 0.167742 3.72258 0.0258069 4.53548 0.0258069C5.20645 0.0258069 5.76774 0.103226 6.21935 0.258065C6.67097 0.4 7.04516 0.548387 7.34194 0.703226C7.63871 0.858064 7.89032 0.935483 8.09677 0.935483C8.25161 0.935483 8.38064 0.870967 8.48387 0.741935C8.5871 0.6 8.66452 0.393548 8.71613 0.122581H9.49032C9.46452 0.406452 9.44516 0.729033 9.43226 1.09032C9.41935 1.43871 9.40645 1.87742 9.39355 2.40645C9.39355 2.93548 9.39355 3.6129 9.39355 4.43871H8.6C8.49677 3.32903 8.10323 2.44516 7.41935 1.7871C6.73548 1.11613 5.87742 0.780645 4.84516 0.780645C4.03226 0.780645 3.4 0.980645 2.94839 1.38065C2.50968 1.76774 2.29032 2.30323 2.29032 2.9871C2.29032 3.43871 2.40645 3.84516 2.63871 4.20645C2.87097 4.55484 3.25161 4.89032 3.78065 5.2129C4.32258 5.52258 5.04516 5.84516 5.94839 6.18065C7.41935 6.72258 8.47742 7.32903 9.12258 8C9.76774 8.67097 10.0903 9.49677 10.0903 10.4774C10.0903 11.6387 9.68387 12.5613 8.87097 13.2452C8.05806 13.929 6.96129 14.271 5.58065 14.271ZM35.0097 14.271C33.771 14.271 32.6935 13.9871 31.7774 13.4194C30.8613 12.8387 30.1452 12.0258 29.629 10.9806C29.1258 9.93548 28.8742 8.71613 28.8742 7.32258C28.8742 5.89032 29.1387 4.62581 29.6677 3.52903C30.2097 2.43226 30.9516 1.57419 31.8935 0.954838C32.8355 0.335484 33.9194 0.0258069 35.1452 0.0258069C35.7258 0.0258069 36.2355 0.090323 36.6742 0.219355C37.1129 0.335484 37.4935 0.483871 37.8161 0.664516C38.1387 0.832258 38.4161 0.980645 38.6484 1.10968C38.8806 1.22581 39.0935 1.28387 39.2871 1.28387C39.4806 1.28387 39.629 1.19355 39.7323 1.0129C39.8355 0.832258 39.9129 0.535484 39.9645 0.122581H40.7387C40.7258 0.470968 40.7129 0.858065 40.7 1.28387C40.6871 1.70968 40.6742 2.23226 40.6613 2.85161C40.6613 3.47097 40.6613 4.24516 40.6613 5.17419H39.8871C39.7323 4.27097 39.4419 3.49677 39.0161 2.85161C38.6032 2.19355 38.0871 1.68387 37.4677 1.32258C36.8484 0.96129 36.1516 0.780645 35.3774 0.780645C33.9968 0.780645 32.9129 1.34194 32.1258 2.46452C31.3516 3.5871 30.9645 5.13548 30.9645 7.10968C30.9645 9.09677 31.3581 10.6645 32.1452 11.8129C32.9323 12.9484 34.0097 13.5161 35.3774 13.5161C36.1645 13.5161 36.8677 13.3355 37.4871 12.9742C38.1194 12.6 38.6419 12.0839 39.0548 11.4258C39.4806 10.7677 39.7581 10 39.8871 9.12258H40.6613C40.6613 10.0129 40.6613 10.7677 40.6613 11.3871C40.6742 12.0065 40.6871 12.5355 40.7 12.9742C40.7129 13.4129 40.7258 13.8129 40.7387 14.1742H39.9645C39.9129 13.7484 39.8355 13.4516 39.7323 13.2839C39.629 13.1161 39.4871 13.0323 39.3065 13.0323C39.1 13.0323 38.8742 13.0968 38.629 13.2258C38.3839 13.3419 38.0935 13.4839 37.7581 13.6516C37.4355 13.8194 37.0484 13.9613 36.5968 14.0774C36.1452 14.2065 35.6161 14.271 35.0097 14.271ZM43.7316 14V13.2452C44.3897 13.2194 44.88 13.1677 45.2026 13.0903C45.5252 13 45.7381 12.8452 45.8413 12.6258C45.9445 12.3935 45.9961 12.0452 45.9961 11.5806V2.71613C45.9961 2.25161 45.9445 1.90968 45.8413 1.69032C45.7381 1.45807 45.5252 1.29677 45.2026 1.20645C44.88 1.11613 44.3897 1.06452 43.7316 1.05161V0.296774C44.0671 0.309678 44.5122 0.322581 45.0671 0.335484C45.6219 0.348387 46.2606 0.354839 46.9832 0.354839C47.6671 0.354839 48.2929 0.348387 48.8606 0.335484C49.4284 0.322581 49.8864 0.309678 50.2348 0.296774V1.05161C49.5768 1.06452 49.0864 1.11613 48.7639 1.20645C48.4413 1.29677 48.2219 1.45807 48.1058 1.69032C48.0026 1.90968 47.951 2.25161 47.951 2.71613V11.5806C47.951 12.0452 48.0026 12.3935 48.1058 12.6258C48.2219 12.8452 48.4413 13 48.7639 13.0903C49.0864 13.1677 49.5768 13.2194 50.2348 13.2452V14C49.8864 13.9871 49.4284 13.9742 48.8606 13.9613C48.2929 13.9484 47.6671 13.9419 46.9832 13.9419C46.2606 13.9419 45.6219 13.9484 45.0671 13.9613C44.5122 13.9742 44.0671 13.9871 43.7316 14Z" fill="#FCFAF6"/>
<path d="M19.4277 14.271C18.0986 14.271 16.9438 13.9935 15.9632 13.4387C14.9825 12.871 14.2212 12.0645 13.6793 11.0194C13.1373 9.96129 12.8664 8.70323 12.8664 7.24516C12.8664 5.8 13.1438 4.53548 13.6986 3.45161C14.2535 2.36774 15.0212 1.52903 16.0019 0.935483C16.9954 0.329032 18.1438 0.0258069 19.447 0.0258069C20.7632 0.0258069 21.9115 0.309678 22.8922 0.877419C23.8857 1.43226 24.647 2.23226 25.1761 3.27742C25.718 4.32258 25.989 5.58065 25.989 7.05161C25.989 8.49677 25.7115 9.76129 25.1567 10.8452C24.6148 11.929 23.847 12.7742 22.8535 13.3806C21.8728 13.9742 20.7309 14.271 19.4277 14.271ZM19.4857 13.5548C20.3761 13.5548 21.1503 13.2839 21.8083 12.7419C22.4793 12.2 22.9954 11.4452 23.3567 10.4774C23.718 9.50968 23.8986 8.3871 23.8986 7.10968C23.8986 5.80645 23.6986 4.68387 23.2986 3.74194C22.9115 2.7871 22.3761 2.05161 21.6922 1.53548C21.0083 1.00645 20.2406 0.741935 19.389 0.741935C18.4986 0.741935 17.718 1.0129 17.047 1.55484C16.389 2.09677 15.8728 2.85161 15.4986 3.81936C15.1373 4.7871 14.9567 5.90968 14.9567 7.1871C14.9567 8.47742 15.1567 9.6 15.5567 10.5548C15.9567 11.5097 16.4986 12.2516 17.1825 12.7806C17.8664 13.2968 18.6341 13.5548 19.4857 13.5548Z" fill="#8276B2"/>
<path d="M59.2245 14.271C57.8955 14.271 56.7407 13.9935 55.76 13.4387C54.7794 12.871 54.0181 12.0645 53.4762 11.0194C52.9342 9.96129 52.6633 8.70323 52.6633 7.24516C52.6633 5.8 52.9407 4.53548 53.4955 3.45161C54.0504 2.36774 54.8181 1.52903 55.7987 0.935483C56.7923 0.329032 57.9407 0.0258069 59.2439 0.0258069C60.56 0.0258069 61.7084 0.309678 62.6891 0.877419C63.6826 1.43226 64.4439 2.23226 64.9729 3.27742C65.5149 4.32258 65.7858 5.58065 65.7858 7.05161C65.7858 8.49677 65.5084 9.76129 64.9536 10.8452C64.4116 11.929 63.6439 12.7742 62.6504 13.3806C61.6697 13.9742 60.5278 14.271 59.2245 14.271ZM59.2826 13.5548C60.1729 13.5548 60.9471 13.2839 61.6052 12.7419C62.2762 12.2 62.7923 11.4452 63.1536 10.4774C63.5149 9.50968 63.6955 8.3871 63.6955 7.10968C63.6955 5.80645 63.4955 4.68387 63.0955 3.74194C62.7084 2.7871 62.1729 2.05161 61.4891 1.53548C60.8052 1.00645 60.0374 0.741935 59.1858 0.741935C58.2955 0.741935 57.5149 1.0129 56.8439 1.55484C56.1858 2.09677 55.6697 2.85161 55.2955 3.81936C54.9342 4.7871 54.7536 5.90968 54.7536 7.1871C54.7536 8.47742 54.9536 9.6 55.3536 10.5548C55.7536 11.5097 56.2955 12.2516 56.9794 12.7806C57.6633 13.2968 58.431 13.5548 59.2826 13.5548Z" fill="#6CB4AA"/>
</svg>
